<?xml version="1.0" standalone="no"?>
<!DOCTYPE svg PUBLIC "-//W3C//DTD SVG 20010904//EN"
 "http://www.w3.org/TR/2001/REC-SVG-20010904/DTD/svg10.dtd">
<svg version="1.0" xmlns="http://www.w3.org/2000/svg"
 width="390.000000pt" height="390.000000pt" viewBox="0 0 390.000000 390.000000"
 preserveAspectRatio="xMidYMid meet">

<g transform="translate(0.000000,390.000000) scale(0.100000,-0.100000)"
fill="#000000" stroke="none">
<path d="M1715 3888 c-644 -65 -1232 -484 -1520 -1085 -145 -302 -214 -671
-187 -998 66 -798 574 -1460 1307 -1704 554 -184 1146 -108 1633 212 586 384
915 1053 871 1770 -32 524 -286 1031 -682 1363 -402 338 -905 494 -1422 442z
m281 -162 c3 -8 4 -31 2 -52 l-3 -39 -20 40 c-11 22 -28 41 -37 43 -16 3 -18
-7 -18 -97 0 -94 1 -101 20 -101 11 0 20 -4 20 -10 0 -6 -28 -10 -65 -10 -37
0 -65 4 -65 10 0 6 9 10 20 10 19 0 20 7 20 101 0 90 -2 100 -17 97 -10 -2
-25 -18 -33 -35 -8 -18 -18 -33 -22 -33 -10 0 -11 74 -1 83 3 4 48 7 100 7 71
0 95 -3 99 -14z m164 -13 c24 -5 24 -5 4 -13 -17 -7 -22 -20 -28 -74 -4 -37
-9 -80 -13 -96 -4 -23 -2 -30 11 -30 9 0 16 -5 16 -10 0 -7 -19 -8 -52 -4 -54
7 -90 24 -51 24 23 0 29 20 40 132 5 60 4 68 -11 68 -10 0 -15 4 -12 8 5 9 46
6 96 -5z m-490 -80 c29 -49 64 -98 78 -110 l25 -21 -54 -9 c-61 -10 -70 -8
-46 10 15 11 15 14 -1 35 -15 20 -22 22 -57 14 -31 -6 -41 -13 -43 -31 -3 -16
2 -24 17 -28 34 -9 24 -20 -21 -26 -49 -7 -58 -2 -36 16 9 6 26 55 38 107 27
121 30 130 39 130 5 0 32 -39 61 -87z m716 31 c46 -22 68 -65 61 -121 -5 -50
-28 -80 -74 -99 -45 -19 -88 -8 -124 34 -28 32 -31 40 -27 84 4 33 13 57 29
74 42 46 81 54 135 28z m-982 -27 c23 -17 24 -66 2 -82 -19 -15 -21 -25 -3
-25 6 0 24 -14 39 -32 21 -25 28 -29 28 -15 0 9 5 17 10 17 18 0 10 -39 -11
-54 -28 -19 -42 -13 -73 35 -41 61 -78 50 -51 -14 10 -23 23 -37 37 -39 20 -3
18 -6 -16 -21 -22 -10 -51 -20 -65 -23 -24 -5 -24 -4 -9 9 17 13 16 19 -13
106 -22 66 -35 91 -45 87 -7 -3 -16 -1 -19 4 -4 6 -4 10 -2 10 2 0 35 11 73
25 80 28 94 30 118 12z m1191 -49 c14 -6 28 -21 30 -32 3 -12 12 -54 20 -95 9
-41 17 -76 19 -78 9 -10 47 102 42 123 l-6 24 35 -17 c38 -18 46 -33 17 -33
-13 0 -31 -26 -62 -90 -24 -49 -47 -90 -51 -90 -10 0 -14 15 -34 123 -10 53
-22 97 -25 97 -4 0 -19 -27 -34 -60 -21 -47 -25 -64 -16 -80 14 -25 -1 -27
-41 -3 -34 20 -37 33 -9 33 15 0 30 20 59 78 37 73 39 80 23 95 -19 20 -4 22
33 5z m-1437 -64 c28 -42 21 -56 -11 -26 -24 22 -52 29 -61 14 -3 -5 15 -44
39 -88 34 -63 47 -79 64 -77 12 2 21 -1 21 -5 0 -11 -101 -64 -108 -57 -4 3 0
10 8 15 13 8 8 24 -29 95 -24 47 -48 85 -51 85 -19 0 -31 -31 -24 -64 3 -20 4
-36 0 -36 -10 0 -49 84 -40 87 5 2 43 23 84 47 41 25 77 45 80 45 3 0 15 -15
28 -35z m-232 -181 c-2 -3 -20 1 -39 8 -30 11 -39 10 -61 -5 -29 -19 -34 -53
-10 -63 9 -3 38 2 65 11 60 22 87 18 112 -16 20 -27 20 -29 4 -64 -12 -25 -30
-41 -57 -52 -22 -10 -40 -23 -40 -29 0 -22 -14 -14 -37 19 -26 38 -25 42 11
28 40 -15 60 -12 84 10 26 24 29 58 6 67 -9 3 -37 -1 -63 -11 -58 -20 -80 -20
-103 1 -40 36 -12 109 50 128 12 3 22 14 22 23 1 12 9 8 31 -16 17 -19 28 -36
25 -39z m1215 11 c600 -103 1072 -604 1150 -1220 16 -129 6 -372 -20 -485 -78
-343 -269 -641 -540 -845 -153 -115 -374 -212 -569 -251 -137 -27 -388 -25
-522 5 -326 73 -613 245 -806 485 -349 435 -420 1021 -183 1526 95 203 292
437 470 558 158 108 376 198 550 227 118 20 354 20 470 0z m906 -66 c-26 -71
-67 -223 -63 -234 8 -21 -1 -17 -45 18 -40 32 -52 55 -22 44 17 -7 33 9 33 35
0 8 -13 25 -29 37 -36 27 -65 20 -58 -14 5 -29 3 -29 -34 -3 -35 25 -37 37 -6
37 12 0 63 20 112 45 93 48 120 56 112 35z m-2347 -54 c-12 -13 -3 -25 55 -84
54 -54 72 -67 82 -58 7 6 16 8 20 4 7 -7 -66 -86 -79 -86 -5 0 -4 8 1 18 8 16
-2 30 -57 85 -53 52 -70 65 -80 55 -6 -6 -15 -9 -19 -5 -7 8 65 87 80 87 5 0
4 -7 -3 -16z m2509 -113 c36 -45 38 -55 13 -46 -21 6 -114 -62 -133 -97 -11
-21 9 -64 36 -74 27 -11 147 77 144 105 -3 32 1 32 26 3 30 -36 32 -52 5 -45
-13 3 -38 -10 -78 -41 -62 -49 -93 -56 -130 -30 -26 18 -52 65 -52 93 0 12 28
44 70 82 55 49 68 65 59 75 -8 9 -8 14 -1 14 6 0 24 -18 41 -39z m-2599 -84
c0 -5 -13 -6 -30 -2 -65 14 -105 -31 -74 -83 45 -76 148 -106 168 -49 8 23 6
31 -12 49 -17 17 -24 20 -34 10 -28 -28 -27 -9 2 33 17 25 36 45 41 45 6 0 7
-5 3 -12 -4 -7 8 -25 32 -45 37 -31 38 -33 14 -33 -21 0 -25 -5 -26 -32 -2
-46 -51 -88 -105 -88 -35 0 -48 6 -80 39 -34 33 -39 45 -39 83 0 49 29 98 57
98 9 0 13 6 10 14 -3 8 -3 16 0 19 7 7 73 -35 73 -46z m2807 -218 c23 -41 42
-80 42 -87 1 -12 -59 -55 -67 -47 -2 2 5 16 17 31 23 30 24 33 12 53 -7 10
-26 3 -90 -34 -67 -39 -81 -51 -76 -66 4 -10 3 -19 -2 -19 -11 0 -65 101 -58
108 3 4 10 0 15 -8 8 -13 17 -11 62 12 106 56 121 67 107 84 -7 8 -26 15 -43
14 -51 -3 -53 0 -16 20 19 11 40 18 45 16 6 -1 29 -36 52 -77z m-2999 0 c18
-6 29 -15 26 -21 -3 -5 -13 -7 -21 -3 -26 9 -52 -5 -69 -37 -8 -16 -14 -31
-12 -33 7 -5 67 -35 73 -35 10 0 5 46 -7 58 -18 18 -4 15 47 -10 48 -23 61
-42 22 -33 -15 4 -28 1 -36 -8 -10 -12 -6 -19 22 -36 44 -27 51 -26 65 4 17
38 15 62 -9 86 -11 11 -18 23 -16 26 6 6 64 -23 72 -36 3 -6 -16 -52 -42 -103
-39 -76 -48 -88 -51 -67 -2 20 -18 32 -87 66 -74 37 -84 40 -90 25 -5 -11 -9
-13 -12 -5 -5 14 74 173 86 173 4 0 22 -5 39 -11z m3101 -218 c14 -42 15 -73
2 -52 -9 14 -66 7 -77 -10 -5 -9 14 -79 22 -79 18 0 74 31 70 39 -4 5 -2 12 3
15 5 3 16 -15 25 -41 20 -58 20 -69 1 -53 -22 19 -185 -37 -185 -62 0 -34 -16
-18 -32 32 -9 28 -12 50 -8 50 5 0 11 -4 15 -9 5 -9 61 4 77 18 4 4 2 23 -4
44 -8 26 -16 36 -26 32 -7 -3 -25 -8 -39 -11 -13 -4 -28 -16 -32 -27 -6 -16
-10 -12 -25 27 -17 43 -15 77 2 49 5 -8 32 -3 95 19 72 25 87 34 87 51 0 27
14 12 29 -32z m-3199 -71 c11 -11 20 -30 20 -42 0 -17 3 -19 12 -10 7 7 29 12
50 12 36 0 52 13 26 23 -7 2 -9 8 -5 13 5 5 17 -1 28 -15 17 -21 18 -26 5 -45
-10 -16 -24 -21 -60 -21 -47 -1 -78 -18 -60 -34 5 -4 24 -13 41 -19 27 -9 34
-8 42 6 5 9 12 14 15 11 9 -8 -23 -109 -34 -109 -5 0 -7 6 -4 14 4 10 -18 21
-78 41 -46 16 -89 30 -95 33 -7 2 -13 -3 -13 -12 0 -9 -4 -16 -10 -16 -14 0
-13 5 11 80 20 65 51 110 76 110 7 0 22 -9 33 -20z m3257 -240 c36 -21 60 -82
50 -122 -18 -70 -96 -111 -160 -84 -69 28 -96 100 -62 166 30 58 112 77 172
40z m-3258 -184 c15 -8 32 -26 39 -41 15 -32 16 -185 2 -185 -5 0 -10 6 -10
14 0 9 -20 15 -61 20 -99 10 -127 8 -139 -11 -8 -14 -10 4 -8 70 3 86 4 90 36
118 37 33 94 39 141 15z m3143 -130 c17 -3 59 -6 94 -6 49 0 65 4 73 18 8 12
10 -4 11 -63 0 -91 -15 -125 -56 -125 -16 0 -30 10 -43 31 -13 22 -20 26 -24
16 -3 -8 -22 -20 -42 -27 -29 -10 -34 -14 -24 -26 9 -11 8 -14 -4 -14 -20 0
-39 25 -35 47 3 19 37 39 81 48 18 4 27 12 27 25 0 17 -7 20 -45 20 -33 0 -45
-4 -45 -15 0 -8 -4 -15 -10 -15 -12 0 -14 103 -2 114 4 4 8 1 10 -7 2 -8 17
-17 34 -21z m-3302 -177 c0 -12 133 -6 188 8 40 10 24 -19 -55 -100 l-78 -79
60 7 c68 8 95 19 95 40 0 8 4 15 9 15 9 0 22 -92 14 -100 -2 -3 -9 3 -14 13
-11 19 -39 21 -128 10 -40 -5 -55 -11 -59 -25 -7 -28 -19 -22 -26 14 -6 28 -1
38 37 78 23 25 54 58 67 73 l25 29 -40 -7 c-75 -12 -85 -15 -85 -30 0 -23 -17
-18 -24 8 -9 33 -7 57 4 57 6 0 10 -5 10 -11z m3260 -78 c0 -16 12 -21 68 -30
37 -6 79 -14 95 -17 20 -4 27 -2 27 10 0 9 4 16 10 16 6 0 7 -19 3 -47 -7 -55
-22 -92 -23 -56 0 17 -7 23 -32 27 -18 3 -60 10 -93 16 -53 9 -62 8 -74 -7
-12 -16 -13 -12 -7 31 3 27 6 55 6 62 0 8 5 14 10 14 6 0 10 -9 10 -19z
m-3002 -196 c14 -55 15 -76 1 -53 -9 16 -12 17 -34 2 -22 -14 -23 -18 -11 -57
10 -34 16 -42 36 -42 17 0 26 7 30 25 6 23 8 20 22 -22 16 -46 13 -59 -8 -39
-5 6 -58 15 -119 21 -60 7 -114 15 -118 19 -4 4 33 43 83 85 49 43 90 84 90
92 0 30 16 12 28 -31z m3047 -52 c110 -32 135 -19 73 38 -35 32 -26 37 27 15
l34 -15 -20 -68 c-11 -37 -22 -81 -26 -96 -5 -26 -9 -28 -36 -23 -16 3 -36 6
-43 6 -8 0 -14 5 -14 10 0 6 9 10 21 10 28 0 59 18 59 34 0 7 -37 23 -87 39
-76 23 -89 24 -99 12 -20 -26 -22 -16 -8 33 22 75 26 80 33 52 6 -21 19 -28
86 -47z m-2929 -263 c24 -49 39 -90 33 -90 -5 0 -9 5 -9 10 0 19 -33 10 -106
-31 -56 -31 -74 -46 -74 -62 -1 -15 -10 -5 -29 33 -30 57 -32 72 -7 51 11 -10
30 -4 95 29 45 22 81 46 81 53 0 32 -31 57 -71 57 -21 0 -39 4 -39 9 0 9 72
40 79 34 2 -1 23 -43 47 -93z m2760 72 c-10 -31 53 -54 128 -46 33 4 67 11 74
17 24 19 23 -1 -2 -52 -27 -51 -43 -68 -31 -31 6 18 2 20 -32 20 -59 0 -66
-10 -36 -48 20 -26 28 -30 39 -21 23 19 26 4 8 -35 -20 -40 -34 -47 -34 -16 0
32 -61 107 -103 126 -36 17 -38 17 -52 -2 -23 -31 -17 2 10 56 25 50 42 67 31
32z m-2412 -526 c44 -18 66 -52 66 -99 0 -31 -7 -46 -34 -73 -38 -38 -70 -43
-116 -19 -32 17 -60 61 -60 95 0 36 30 81 63 95 40 18 41 18 81 1z m2102 -57
c72 -75 -1 -200 -101 -175 -99 25 -100 179 -2 204 45 12 71 4 103 -29z m-682
-255 c18 -17 22 -69 6 -79 -14 -8 -13 -25 2 -25 23 0 48 -34 48 -66 0 -42 -38
-74 -88 -74 -57 0 -94 50 -58 79 21 17 52 -15 34 -36 -15 -18 4 -33 33 -26 24
7 33 41 20 76 -10 27 -19 31 -53 28 -10 -1 -18 3 -18 8 0 6 4 11 9 11 5 0 16
7 24 15 18 18 9 63 -16 79 -25 16 -42 -6 -26 -33 16 -24 0 -47 -25 -38 -25 10
-20 63 6 81 29 20 82 20 102 0z m-744 -11 c0 -10 -9 -56 -20 -103 -25 -108
-25 -116 2 -123 12 -4 19 -9 15 -13 -8 -9 -126 16 -133 27 -3 5 4 9 16 9 24 0
25 1 49 104 l19 77 -27 12 c-26 11 -26 11 14 17 63 11 65 11 65 -7z m245 -19
c44 -17 58 -119 26 -191 -27 -59 -80 -80 -132 -53 -23 13 -25 55 -3 64 24 9
36 -3 31 -30 -7 -40 31 -31 49 11 20 49 18 54 -20 48 -45 -7 -76 23 -76 72 0
63 63 102 125 79z m244 -4 c25 -13 51 -81 51 -131 0 -84 -37 -127 -100 -117
-51 7 -85 100 -68 183 13 63 66 93 117 65z"/>
<path d="M1592 3611 c-10 -41 -10 -41 19 -41 34 0 36 14 10 53 l-18 28 -11
-40z"/>
<path d="M2312 3640 c-22 -24 -42 -84 -42 -128 0 -23 7 -36 26 -48 24 -16 27
-16 51 3 49 36 70 145 35 176 -25 23 -47 21 -70 -3z"/>
<path d="M1305 3610 c-9 -15 14 -80 29 -80 7 0 21 9 31 20 15 17 16 24 7 45
-12 26 -54 35 -67 15z"/>
<path d="M1933 2583 c54 -2 139 -2 190 0 51 1 7 3 -98 3 -104 0 -146 -2 -92
-3z"/>
<path d="M1586 2558 c-9 -12 -16 -27 -16 -33 1 -5 7 1 14 15 11 19 25 27 58
31 l43 6 -42 1 c-33 2 -45 -3 -57 -20z"/>
<path d="M2505 2549 c-9 -17 -14 -33 -12 -35 2 -3 10 9 17 25 8 20 21 31 38
34 l27 4 -27 2 c-21 1 -31 -6 -43 -30z"/>
<path d="M2591 2553 c7 -12 15 -20 18 -17 3 2 -3 12 -13 22 -17 16 -18 16 -5
-5z"/>
<path d="M1032 2538 c-7 -7 -12 -42 -13 -82 0 -39 -4 -93 -7 -121 l-7 -50 -67
-15 c-70 -16 -90 -26 -71 -38 6 -4 31 -49 57 -99 25 -51 48 -93 51 -93 3 0
-18 45 -46 101 l-50 101 63 -7 c35 -4 64 -8 65 -9 1 -1 5 -153 9 -337 4 -259
9 -346 21 -389 l16 -55 18 55 c15 47 18 95 18 325 1 149 4 300 7 336 l7 66 63
10 c35 5 68 5 72 1 5 -5 9 -2 9 6 0 11 -22 19 -76 28 l-76 14 -3 119 c-1 67
-7 125 -14 132 -13 16 -30 17 -46 1z m47 -645 c-1 -181 -4 -339 -8 -353 -10
-36 -21 194 -21 458 0 191 2 222 15 222 13 0 15 -43 14 -327z"/>
<path d="M1633 2513 c20 -2 54 -2 75 0 20 2 3 4 -38 4 -41 0 -58 -2 -37 -4z"/>
<path d="M2338 2513 c18 -2 45 -2 60 0 15 2 0 4 -33 4 -33 0 -45 -2 -27 -4z"/>
<path d="M2597 2491 c-4 -17 -3 -21 5 -13 5 5 8 16 6 23 -3 8 -7 3 -11 -10z"/>
<path d="M1628 2493 c17 -2 47 -2 65 0 17 2 3 4 -33 4 -36 0 -50 -2 -32 -4z"/>
<path d="M2328 2493 c18 -2 45 -2 60 0 15 2 0 4 -33 4 -33 0 -45 -2 -27 -4z"/>
<path d="M2520 2496 c0 -2 9 -6 20 -9 11 -3 20 -1 20 4 0 5 -9 9 -20 9 -11 0
-20 -2 -20 -4z"/>
<path d="M2905 2447 c-33 -21 -58 -47 -72 -77 -14 -26 -23 -36 -23 -25 0 31
-60 -33 -61 -64 0 -23 -1 -24 -8 -6 -7 17 -10 15 -33 -20 -40 -65 -58 -103
-58 -126 0 -12 -12 -47 -27 -78 -20 -40 -28 -73 -30 -116 -2 -87 -2 -87 -13
-80 -12 7 -2 -50 13 -80 9 -18 12 -16 23 20 15 49 18 34 3 -17 -9 -36 -12 -38
-49 -38 -36 0 -40 -3 -40 -25 0 -14 5 -25 10 -25 6 0 10 -7 10 -15 0 -10 -10
-15 -29 -15 -16 0 -33 -6 -39 -12 -14 -18 -18 -106 -6 -118 7 -7 65 -10 155
-8 l144 3 -2 48 c-4 66 -17 87 -53 87 -20 0 -30 5 -30 15 0 8 5 15 11 15 6 0
9 10 7 23 -2 18 -10 23 -40 25 -30 3 -38 7 -38 23 0 11 4 17 10 14 10 -6 104
59 130 90 12 15 8 14 -25 -4 -22 -11 -44 -21 -50 -21 -5 1 6 9 25 20 39 20
135 116 108 107 -27 -10 -22 -2 21 27 37 26 81 89 70 101 -3 3 -25 -2 -49 -10
-23 -8 -50 -15 -59 -14 -9 0 1 7 22 14 74 27 144 88 153 133 1 8 10 22 19 31
8 10 20 33 25 51 8 30 8 32 -12 27 l-20 -6 21 23 c27 29 27 39 -1 26 -18 -9
-17 -6 6 13 18 16 24 27 17 31 -6 4 -17 4 -23 0 -7 -4 -5 2 5 13 13 15 15 23
7 28 -13 8 -15 5 -52 -55 -12 -19 -38 -55 -58 -80 -57 -69 -141 -189 -172
-245 -15 -27 -28 -46 -28 -41 0 21 79 149 151 243 96 125 120 165 108 184 -7
12 -9 12 -10 -1 0 -11 -2 -11 -7 2 -7 16 -12 15 -57 -15z m5 -101 c0 -2 -8
-10 -17 -17 -16 -13 -17 -12 -4 4 13 16 21 21 21 13z m-96 -118 c-30 -40 -73
-109 -95 -153 -22 -44 -37 -69 -33 -55 17 62 85 177 146 246 48 55 41 39 -18
-38z m-108 -245 c-8 -15 -15 -25 -16 -21 0 12 23 58 27 54 3 -2 -2 -17 -11
-33z m-30 -79 c-8 -21 -15 -34 -15 -28 -1 15 20 76 25 71 2 -2 -2 -21 -10 -43z
m-32 -38 c-3 -15 -8 -25 -11 -23 -2 3 -1 17 3 31 3 15 8 25 11 23 2 -3 1 -17
-3 -31z m10 -40 c-3 -15 -8 -25 -11 -23 -2 3 -1 17 3 31 3 15 8 25 11 23 2 -3
1 -17 -3 -31z m23 -118 c-3 -8 -6 -5 -6 6 -1 11 2 17 5 13 3 -3 4 -12 1 -19z
m37 -90 c3 -13 6 -38 6 -56 0 -27 -4 -33 -17 -30 -26 5 -37 108 -12 108 9 0
19 -10 23 -22z"/>
<path d="M1591 2418 c-6 -29 -51 -273 -101 -543 -49 -269 -92 -500 -95 -512
l-5 -23 419 0 419 0 6 28 c11 55 176 1073 176 1087 0 13 -54 15 -404 15 l-405
0 -10 -52z m795 5 c-3 -16 -42 -251 -86 -523 -44 -272 -82 -505 -85 -517 l-5
-23 -395 0 c-257 0 -395 3 -395 10 0 11 186 1021 195 1058 l5 22 386 0 386 0
-6 -27z"/>
<path d="M1857 2193 c79 -2 207 -2 285 0 79 1 15 3 -142 3 -157 0 -221 -2
-143 -3z"/>
<path d="M1713 2173 c71 -2 183 -2 250 0 67 1 10 3 -128 3 -137 0 -192 -2
-122 -3z"/>
<path d="M2063 2033 c37 -2 97 -2 135 0 37 2 6 3 -68 3 -74 0 -105 -1 -67 -3z"/>
<path d="M1648 2023 c17 -2 47 -2 65 0 17 2 3 4 -33 4 -36 0 -50 -2 -32 -4z"/>
<path d="M1893 2013 c31 -2 83 -2 115 0 31 2 5 3 -58 3 -63 0 -89 -1 -57 -3z"/>
<path d="M1738 1953 c94 -2 250 -2 345 0 94 1 17 3 -173 3 -190 0 -267 -2
-172 -3z"/>
<path d="M1863 1933 c70 -2 184 -2 255 0 70 1 12 3 -128 3 -140 0 -198 -2
-127 -3z"/>
<path d="M1717 1843 c94 -2 252 -2 350 0 98 1 21 2 -172 2 -192 1 -273 -1
-178 -2z"/>
<path d="M1708 1783 c94 -2 250 -2 345 0 94 1 17 3 -173 3 -190 0 -267 -2
-172 -3z"/>
<path d="M1697 1763 c94 -2 252 -2 350 0 98 1 21 2 -172 2 -192 1 -273 -1
-178 -2z"/>
<path d="M1697 1703 c79 -2 207 -2 285 0 79 1 15 3 -142 3 -157 0 -221 -2
-143 -3z"/>
<path d="M1620 1677 c0 -4 -4 -6 -9 -2 -5 3 -16 -1 -24 -9 -8 -8 -17 -12 -21
-9 -3 4 -6 2 -6 -4 0 -5 -9 -20 -20 -33 -11 -13 -21 -31 -21 -42 -1 -10 -2
-24 -3 -30 -8 -53 49 -103 108 -95 37 5 76 24 76 37 0 5 9 12 20 15 11 4 18
11 15 16 -4 5 -2 9 3 9 5 0 9 7 11 15 4 33 4 61 0 74 -5 19 -42 57 -51 54 -5
-2 -8 1 -8 5 0 4 -16 8 -35 8 -19 0 -35 -4 -35 -9z"/>
<path d="M2466 2442 c-4 -18 -5 -36 -2 -39 3 -4 6 1 6 10 0 13 10 17 44 17 41
0 44 2 38 23 -5 18 -7 19 -10 5 -2 -12 -13 -18 -32 -18 -19 0 -30 6 -32 18 -3
11 -7 5 -12 -16z"/>
<path d="M1541 2434 c0 -11 3 -14 6 -6 3 7 2 16 -1 19 -3 4 -6 -2 -5 -13z"/>
<path d="M1531 2394 c0 -11 3 -14 6 -6 3 7 2 16 -1 19 -3 4 -6 -2 -5 -13z"/>
<path d="M2451 2374 c0 -11 3 -14 6 -6 3 7 2 16 -1 19 -3 4 -6 -2 -5 -13z"/>
<path d="M1522 2350 c0 -14 2 -19 5 -12 2 6 2 18 0 25 -3 6 -5 1 -5 -13z"/>
<path d="M2442 2325 c0 -16 2 -22 5 -12 2 9 2 23 0 30 -3 6 -5 -1 -5 -18z"/>
<path d="M1512 2300 c0 -14 2 -19 5 -12 2 6 2 18 0 25 -3 6 -5 1 -5 -13z"/>
<path d="M2432 2270 c0 -14 2 -19 5 -12 2 6 2 18 0 25 -3 6 -5 1 -5 -13z"/>
<path d="M1502 2250 c0 -14 2 -19 5 -12 2 6 2 18 0 25 -3 6 -5 1 -5 -13z"/>
<path d="M2422 2215 c0 -16 2 -22 5 -12 2 9 2 23 0 30 -3 6 -5 -1 -5 -18z"/>
<path d="M1492 2190 c0 -14 2 -19 5 -12 2 6 2 18 0 25 -3 6 -5 1 -5 -13z"/>
<path d="M797 2105 c-54 -106 -53 -120 7 -149 42 -20 86 -20 130 -2 31 13 66
49 66 68 0 5 -52 8 -115 8 l-115 0 41 81 c22 45 39 83 37 84 -2 2 -25 -39 -51
-90z"/>
<path d="M1261 2195 c0 -5 11 -30 24 -55 13 -25 24 -40 24 -35 0 6 -11 30 -24
55 -13 25 -24 41 -24 35z"/>
<path d="M1155 2103 c-50 -96 -50 -103 5 -140 56 -39 150 -23 185 31 16 23 16
27 1 41 -9 9 -16 12 -16 6 0 -7 -36 -11 -100 -11 l-100 0 40 80 c22 44 38 80
36 80 -3 0 -26 -39 -51 -87z"/>
<path d="M2412 2155 c0 -16 2 -22 5 -12 2 9 2 23 0 30 -3 6 -5 -1 -5 -18z"/>
<path d="M1482 2135 c0 -16 2 -22 5 -12 2 9 2 23 0 30 -3 6 -5 -1 -5 -18z"/>
<path d="M2402 2085 c0 -16 2 -22 5 -12 2 9 2 23 0 30 -3 6 -5 -1 -5 -18z"/>
<path d="M1472 2075 c0 -16 2 -22 5 -12 2 9 2 23 0 30 -3 6 -5 -1 -5 -18z"/>
<path d="M1462 2015 c0 -16 2 -22 5 -12 2 9 2 23 0 30 -3 6 -5 -1 -5 -18z"/>
<path d="M2392 2015 c0 -16 2 -22 5 -12 2 9 2 23 0 30 -3 6 -5 -1 -5 -18z"/>
<path d="M1452 1955 c0 -16 2 -22 5 -12 2 9 2 23 0 30 -3 6 -5 -1 -5 -18z"/>
<path d="M2382 1950 c0 -19 2 -27 5 -17 2 9 2 25 0 35 -3 9 -5 1 -5 -18z"/>
<path d="M1442 1895 c0 -16 2 -22 5 -12 2 9 2 23 0 30 -3 6 -5 -1 -5 -18z"/>
<path d="M2372 1885 c0 -16 2 -22 5 -12 2 9 2 23 0 30 -3 6 -5 -1 -5 -18z"/>
<path d="M1432 1835 c0 -16 2 -22 5 -12 2 9 2 23 0 30 -3 6 -5 -1 -5 -18z"/>
<path d="M2362 1815 c0 -16 2 -22 5 -12 2 9 2 23 0 30 -3 6 -5 -1 -5 -18z"/>
<path d="M1422 1775 c0 -16 2 -22 5 -12 2 9 2 23 0 30 -3 6 -5 -1 -5 -18z"/>
<path d="M2352 1745 c0 -16 2 -22 5 -12 2 9 2 23 0 30 -3 6 -5 -1 -5 -18z"/>
<path d="M1412 1715 c0 -16 2 -22 5 -12 2 9 2 23 0 30 -3 6 -5 -1 -5 -18z"/>
<path d="M2342 1685 c0 -16 2 -22 5 -12 2 9 2 23 0 30 -3 6 -5 -1 -5 -18z"/>
<path d="M1402 1655 c0 -16 2 -22 5 -12 2 9 2 23 0 30 -3 6 -5 -1 -5 -18z"/>
<path d="M2332 1625 c0 -16 2 -22 5 -12 2 9 2 23 0 30 -3 6 -5 -1 -5 -18z"/>
<path d="M1392 1600 c0 -14 2 -19 5 -12 2 6 2 18 0 25 -3 6 -5 1 -5 -13z"/>
<path d="M2322 1570 c0 -14 2 -19 5 -12 2 6 2 18 0 25 -3 6 -5 1 -5 -13z"/>
<path d="M1382 1550 c0 -14 2 -19 5 -12 2 6 2 18 0 25 -3 6 -5 1 -5 -13z"/>
<path d="M2311 1514 c0 -11 3 -14 6 -6 3 7 2 16 -1 19 -3 4 -6 -2 -5 -13z"/>
<path d="M1372 1500 c0 -14 2 -19 5 -12 2 6 2 18 0 25 -3 6 -5 1 -5 -13z"/>
<path d="M2302 1470 c0 -14 2 -19 5 -12 2 6 2 18 0 25 -3 6 -5 1 -5 -13z"/>
<path d="M1362 1450 c0 -14 2 -19 5 -12 2 6 2 18 0 25 -3 6 -5 1 -5 -13z"/>
<path d="M2291 1424 c0 -11 3 -14 6 -6 3 7 2 16 -1 19 -3 4 -6 -2 -5 -13z"/>
<path d="M1351 1404 c0 -11 3 -14 6 -6 3 7 2 16 -1 19 -3 4 -6 -2 -5 -13z"/>
<path d="M2281 1384 c0 -11 3 -14 6 -6 3 7 2 16 -1 19 -3 4 -6 -2 -5 -13z"/>
<path d="M1335 1351 c-5 -25 -12 -30 -43 -34 -22 -2 -13 -4 23 -4 33 0 52 1
42 4 -14 4 -17 11 -12 34 4 16 4 29 2 29 -3 0 -8 -13 -12 -29z"/>
<path d="M1673 1313 c48 -2 125 -2 170 0 45 1 6 3 -88 3 -93 0 -130 -2 -82 -3z"/>
<path d="M1235 1299 c-4 -6 -5 -12 -2 -15 2 -3 7 2 10 11 7 17 1 20 -8 4z"/>
<path d="M2142 1290 c-6 -11 -12 -25 -12 -32 0 -7 6 -2 13 12 7 14 20 26 30
28 26 5 21 -27 -5 -38 l-23 -9 22 0 c22 -1 40 30 28 49 -10 17 -39 11 -53 -10z"/>
<path d="M2237 1265 c-20 -43 -39 -52 -75 -36 l-27 11 24 -20 c21 -18 26 -19
45 -7 22 15 62 75 54 82 -2 3 -12 -11 -21 -30z"/>
<path d="M1220 1263 c0 -5 10 -18 23 -29 l22 -19 -20 25 c-11 14 -21 27 -22
29 -2 2 -3 0 -3 -6z"/>
<path d="M1453 1213 c103 -2 271 -2 375 0 103 1 18 2 -188 2 -206 0 -291 -1
-187 -2z"/>
<path d="M2953 3243 c-38 -19 -40 -24 -13 -48 19 -17 20 -17 30 11 17 48 19
54 17 53 -1 0 -17 -8 -34 -16z"/>
<path d="M244 2474 c-19 -28 -14 -36 33 -52 31 -10 33 -9 39 15 5 20 2 31 -16
45 -29 24 -36 23 -56 -8z"/>
<path d="M3505 2253 c-11 -2 -30 -6 -42 -8 -50 -11 -70 -67 -35 -98 34 -31
152 -14 173 24 16 30 3 68 -27 79 -26 10 -35 11 -69 3z"/>
<path d="M176 2044 c-9 -8 -16 -29 -16 -45 l0 -29 80 -1 c44 -1 86 -2 93 -3
19 -2 21 53 1 75 -23 25 -134 27 -158 3z"/>
<path d="M3540 1897 c0 -50 63 -67 80 -21 14 35 6 44 -41 44 -34 0 -39 -3 -39
-23z"/>
<path d="M310 1410 l-35 -29 47 -1 47 0 -10 30 c-6 17 -12 30 -12 30 -1 0 -18
-14 -37 -30z"/>
<path d="M1740 374 c-19 -49 -7 -89 25 -82 22 4 39 50 31 83 -9 34 -43 33 -56
-1z"/>
<path d="M1986 384 c-9 -24 -7 -98 5 -154 8 -39 15 -50 30 -50 15 0 19 8 20
33 3 62 -3 141 -12 164 -10 26 -34 30 -43 7z"/>
</g>
</svg>
